<svg xmlns="http://www.w3.org/2000/svg" xmlns:xlink="http://www.w3.org/1999/xlink" width="25px" height="24px" viewBox="0 0 25 24"><title>Building-Cloudy--3</title><g id="Page-1" stroke="none" stroke-width="1" fill="none" fill-rule="evenodd"><g id="Building-Cloudy--3" transform="translate(0.026658, 0.001623)" fill="#FFFFFF"><path d="M6.38134203,0.00948917598 C6.36154203,0.014193176 6.26434203,0.031161176 6.16534203,0.047193176 C5.76363003,0.112209176 5.33561403,0.297249176 4.95787803,0.569241176 C4.71293403,0.745569176 4.35751803,1.11672918 4.20886203,1.35140118 C4.09627803,1.52912118 4.08910203,1.53548118 4.01861403,1.51966518 C3.90336603,1.49379318 3.48103803,1.50226518 3.30934203,1.53389718 C2.41404603,1.69884918 1.67539803,2.43740118 1.50859803,3.33437718 C1.46753403,3.55510518 1.47353403,3.98247318 1.52088603,4.21037718 C1.69303803,5.03890518 2.33712603,5.71073718 3.17338203,5.93405718 C3.36679803,5.98570518 3.39367803,5.98638042 5.24134203,5.98638042 C7.30342203,5.98638042 7.25897403,5.98916118 7.71336603,5.83172118 C8.72652603,5.48067318 9.49601403,4.57383318 9.67973403,3.51437718 C9.72771003,3.23772918 9.72771003,2.75902518 9.67973403,2.48237718 C9.47143803,1.28129718 8.55017403,0.326457176 7.34134203,0.058833176 C7.17802203,0.022665176 6.47719803,-0.013358824 6.38134203,0.00948917598 M13.331478,0.037857176 C12.688278,0.175737176 12.145086,0.724881176 12.011334,1.37247318 C11.97699,1.53864918 11.973486,2.58576918 11.974734,12.2433692 C11.97603,22.2656732 11.97867,22.9401932 12.017334,23.0883212 C12.094182,23.3826572 12.316254,23.6662652 12.605574,23.8395452 C12.88827,24.0088652 12.534582,23.9985212 17.99007,23.9969852 C23.471166,23.9954492 23.064678,24.0080252 23.356854,23.8309532 C23.629542,23.6656892 23.872014,23.3510732 23.928198,23.0896172 C23.944182,23.0152412 23.967966,22.9404572 23.981046,22.9234172 C23.996694,22.9030412 23.99895,19.2533612 23.987646,12.2194172 C23.972526,2.79802518 23.966214,1.52540118 23.933934,1.36748118 C23.801214,0.718137176 23.253006,0.171393176 22.599246,0.036369176 C22.435182,0.00248117598 21.93495,-0.00140682402 17.95635,0.000345175977 C14.113134,0.00202517598 13.474446,0.00720917598 13.331478,0.037857176 M6.35734203,1.54678518 C6.05057403,1.63064118 5.76946203,1.81140918 5.56435803,2.05673718 C5.42614203,2.22202518 5.36508603,2.33950518 5.28696603,2.59037718 C5.20507803,2.85332118 5.15827803,2.94243318 5.04538203,3.05033718 C4.89343803,3.19551318 4.76429403,3.24920118 4.54426203,3.25863318 C4.35459003,3.26674518 4.34741403,3.26494518 4.13991003,3.15639318 C3.86031003,3.01013718 3.76085403,2.98620918 3.58183803,3.02211318 C3.28716603,3.08120118 3.05309403,3.31769718 2.99640603,3.61361718 C2.94579003,3.87771318 3.02839803,4.11396918 3.23686203,4.30138518 C3.45399003,4.49660118 3.36375003,4.48880118 5.31583803,4.48112118 C7.03911003,4.47432918 7.04155803,4.47425718 7.20228603,4.41970518 C7.41063003,4.34902518 7.69092603,4.16052918 7.84512603,3.98739318 C7.98082203,3.83506518 8.13689403,3.53417718 8.18175003,3.33845718 C8.19785403,3.26808918 8.21105403,3.11504118 8.21105403,2.99837718 C8.21105403,2.88171318 8.19785403,2.72866518 8.18175003,2.65829718 C8.13689403,2.46257718 7.98082203,2.16168918 7.84512603,2.00936118 C7.68862203,1.83365718 7.40755803,1.64590518 7.20228603,1.57992918 C6.99012603,1.51176918 6.54879003,1.49446518 6.35734203,1.54678518 M13.555494,1.58052918 L13.485342,1.65068118 L13.485342,12.0685292 L13.485342,22.4863772 L17.973342,22.4863772 L22.461342,22.4863772 L22.461342,12.0685292 L22.461342,1.65068118 L22.39119,1.58052918 L22.321038,1.51037718 L17.973342,1.51037718 L13.625646,1.51037718 L13.555494,1.58052918 M15.489342,3.03024918 C15.290286,3.10829718 15.13791,3.24442518 15.041382,3.43037718 C14.987118,3.53494518 14.985342,3.55704918 14.985342,4.12637718 C14.985342,4.69347318 14.98731,4.71804918 15.040374,4.81745718 C15.125238,4.97640918 15.252342,5.10243318 15.401478,5.17556118 C15.588942,5.26745718 15.863838,5.27028918 16.038198,5.18211318 C16.196238,5.10219318 16.336206,4.95764118 16.409814,4.79837718 C16.466118,4.67655318 16.47159,4.63400118 16.480878,4.24637718 C16.496766,3.58407318 16.43643,3.35573718 16.195038,3.16455318 C16.005054,3.01407318 15.685638,2.95330518 15.489342,3.03024918 M19.960086,3.04491318 C19.70499,3.14463318 19.531398,3.35972118 19.48335,3.63567318 C19.46619,3.73419318 19.459422,3.96164118 19.465638,4.23075318 C19.474998,4.63546518 19.480038,4.67573718 19.536798,4.79837718 C19.610502,4.95768918 19.750494,5.10221718 19.908486,5.18211318 C20.082846,5.27028918 20.357742,5.26745718 20.545206,5.17556118 C20.694342,5.10243318 20.821446,4.97640918 20.90631,4.81745718 C20.95839,4.71989718 20.96175,4.68449718 20.96895,4.15601718 L20.976534,3.59768118 L20.913678,3.46001718 C20.78403,3.17609718 20.51859,2.99746518 20.229342,2.99951148 C20.137134,3.00017718 20.027022,3.01872918 19.960086,3.04491318 M15.524166,6.77357718 C15.315414,6.83271318 15.152358,6.96980118 15.039486,7.18104918 C14.98851,7.27644918 14.984886,7.31501718 14.977734,7.84073718 L14.97015,8.39907318 L15.033006,8.53673718 C15.245526,9.00219318 15.801822,9.14362518 16.195038,8.83220118 C16.43643,8.64101718 16.496766,8.41268118 16.480878,7.75037718 C16.47159,7.36275318 16.466118,7.32020118 16.409814,7.19837718 C16.337214,7.04127318 16.196166,6.89427318 16.046118,6.81934518 C15.911286,6.75200118 15.67383,6.73116918 15.524166,6.77357718 M20.03151,6.76690518 C19.829934,6.81773718 19.638054,6.98542518 19.53783,7.19837718 C19.479726,7.32185718 19.47507,7.35845718 19.465638,7.76600118 C19.459422,8.03511318 19.46619,8.26256118 19.48335,8.36108118 C19.549446,8.74054518 19.853814,8.99840118 20.235606,8.99835318 C20.51931,8.99832918 20.785734,8.81696118 20.913678,8.53673718 L20.976534,8.39907318 L20.96895,7.84073718 C20.960454,7.21740918 20.95395,7.18988118 20.76615,6.98201718 C20.601942,6.80026518 20.276838,6.70505718 20.03151,6.76690518 M1.33147803,9.03785718 C0.712686026,9.17050518 0.149934026,9.72118518 0.0228300255,10.3183772 C0.00168602554,10.4178092 -0.00344997446,12.0143372 0.00204602554,16.7868812 L0.00934202554,23.1233852 L0.0895980255,23.2864172 C0.187182026,23.4846092 0.400110026,23.7172412 0.586974026,23.8297532 C0.881454026,24.0070892 0.558894026,23.9954492 5.21830203,23.9969852 C8.89455003,23.9982092 9.41215803,23.9939612 9.53633403,23.9616332 C9.95388603,23.8528652 10.301046,23.5172492 10.429254,23.0983772 C10.471542,22.9602332 10.473342,22.7018732 10.473342,16.7383772 C10.473342,10.8728012 10.470942,10.5121772 10.430814,10.3413452 C10.356678,10.0257692 10.211742,9.76985718 9.96629403,9.52112118 C9.70743003,9.25880118 9.36989403,9.07671318 9.04471803,9.02396118 C8.94063003,9.00706518 7.66937403,8.99933718 5.19334203,9.00039676 C2.02371003,9.00204918 1.47372603,9.00735318 1.33147803,9.03785718 M15.58023,10.5132332 C15.33219,10.5538652 15.092406,10.7642732 15.009438,11.0140892 C14.97747,11.1103052 14.972022,11.2236332 14.978046,11.6664572 C14.986326,12.2751452 15.00075,12.3321212 15.195606,12.5270012 C15.345126,12.6765212 15.457494,12.7249052 15.68403,12.7373612 C15.857886,12.7469132 15.894438,12.7409852 16.025958,12.6819692 C16.17603,12.6146012 16.328886,12.4744892 16.397934,12.3409772 C16.467102,12.2072252 16.491486,11.9615612 16.480446,11.5100012 C16.467822,10.9933772 16.439238,10.8992252 16.236822,10.7077772 C16.054326,10.5351932 15.837798,10.4710412 15.58023,10.5132332 M20.083422,10.5104012 C19.853718,10.5497612 19.630998,10.7284172 19.530006,10.9543772 C19.482558,11.0605772 19.47519,11.1244652 19.465974,11.5100012 C19.455198,11.9613932 19.479726,12.2074652 19.54875,12.3409772 C19.617798,12.4744892 19.770654,12.6146012 19.920726,12.6819692 C20.052246,12.7409852 20.088798,12.7469132 20.262654,12.7373612 C20.48919,12.7249052 20.601558,12.6765212 20.751078,12.5270012 C20.945934,12.3321212 20.960358,12.2751452 20.968638,11.6664572 C20.976822,11.0638652 20.962542,10.9814252 20.816838,10.7906252 C20.720622,10.6646012 20.534886,10.5434492 20.405358,10.5222332 C20.22723,10.4930252 20.192358,10.4917532 20.083422,10.5104012 M1.55549403,10.5805292 L1.48534203,10.6506812 L1.48534203,11.3245292 L1.48534203,11.9983772 L5.22934203,11.9983772 L8.97334203,11.9983772 L8.97334203,11.3600012 C8.97334203,10.6651292 8.96165403,10.5935612 8.83906203,10.5377132 C8.79507003,10.5176492 7.82590203,10.5103772 5.20236603,10.5103772 L1.62564603,10.5103772 L1.55549403,10.5805292 M1.48534203,17.9983772 L1.48534203,22.4863772 L5.22934203,22.4863772 L8.97334203,22.4863772 L8.97334203,17.9983772 L8.97334203,13.5103772 L5.22934203,13.5103772 L1.48534203,13.5103772 L1.48534203,17.9983772 M15.501198,14.2767932 C15.31935,14.3321132 15.131766,14.4970892 15.040854,14.6816972 C14.988678,14.7875852 14.98491,14.8266332 14.978046,15.3302972 C14.969862,15.9328892 14.984142,16.0153292 15.129846,16.2061292 C15.340854,16.4825132 15.760614,16.5773372 16.06863,16.4182412 C16.198662,16.3510652 16.35339,16.1839772 16.416678,16.0423772 C16.464126,15.9361772 16.471494,15.8722892 16.48071,15.4867532 C16.495566,14.8637132 16.460934,14.6965292 16.273974,14.4891932 C16.139886,14.3404652 15.93735,14.2539212 15.729342,14.2564652 C15.636942,14.2575932 15.53427,14.2667372 15.501198,14.2767932 M19.905342,14.3211932 C19.760334,14.3913692 19.614654,14.5283372 19.548078,14.6570972 C19.479726,14.7892652 19.455246,15.0367052 19.465974,15.4867532 C19.47519,15.8722892 19.482558,15.9361772 19.530006,16.0423772 C19.593294,16.1839772 19.748022,16.3510652 19.878054,16.4182412 C20.18607,16.5773372 20.60583,16.4825132 20.816838,16.2061292 C20.962542,16.0153292 20.976822,15.9328892 20.968638,15.3302972 C20.960358,14.7216092 20.945934,14.6646332 20.751078,14.4697532 C20.597886,14.3165612 20.490006,14.2712492 20.253342,14.2606412 C20.067198,14.2523132 20.036742,14.2575957 19.905342,14.3211932 M3.48934203,15.0302492 C3.29028603,15.1082972 3.13791003,15.2444252 3.04138203,15.4303772 C2.98711803,15.5349452 2.98534203,15.5570492 2.98534203,16.1263772 C2.98534203,16.6934732 2.98731003,16.7180492 3.04037403,16.8174572 C3.12523803,16.9764092 3.25234203,17.1024332 3.40147803,17.1755612 C3.58894203,17.2674572 3.86383803,17.2702892 4.03819803,17.1821132 C4.19623803,17.1021932 4.33620603,16.9576412 4.40981403,16.7983772 C4.46611803,16.6765532 4.47159003,16.6340012 4.48087803,16.2463772 C4.49676603,15.5840732 4.43643003,15.3557372 4.19503803,15.1645532 C4.00505403,15.0140732 3.68563803,14.9533052 3.48934203,15.0302492 M6.48934203,15.0302492 C6.29028603,15.1082972 6.13791003,15.2444252 6.04138203,15.4303772 C5.98711803,15.5349452 5.98534203,15.5570492 5.98534203,16.1263772 C5.98534203,16.6934732 5.98731003,16.7180492 6.04037403,16.8174572 C6.12523803,16.9764092 6.25234203,17.1024332 6.40147803,17.1755612 C6.58894203,17.2674572 6.86383803,17.2702892 7.03819803,17.1821132 C7.19623803,17.1021932 7.33620603,16.9576412 7.40981403,16.7983772 C7.46611803,16.6765532 7.47159003,16.6340012 7.48087803,16.2463772 C7.49676603,15.5840732 7.43643003,15.3557372 7.19503803,15.1645532 C7.00505403,15.0140732 6.68563803,14.9533052 6.48934203,15.0302492 M15.489342,18.0302492 C15.290286,18.1082972 15.13791,18.2444252 15.041382,18.4303772 C14.987118,18.5349452 14.985342,18.5570492 14.985342,19.1263772 C14.985342,19.6934732 14.98731,19.7180492 15.040374,19.8174572 C15.125238,19.9764092 15.252342,20.1024332 15.401478,20.1755612 C15.588942,20.2674572 15.863838,20.2702892 16.038198,20.1821132 C16.196238,20.1021932 16.336206,19.9576412 16.409814,19.7983772 C16.466118,19.6765532 16.47159,19.6340012 16.480878,19.2463772 C16.496766,18.5840732 16.43643,18.3557372 16.195038,18.1645532 C16.005054,18.0140732 15.685638,17.9533052 15.489342,18.0302492 M19.960086,18.0449132 C19.70499,18.1446332 19.531398,18.3597212 19.48335,18.6356732 C19.46619,18.7341932 19.459422,18.9616412 19.465638,19.2307532 C19.474998,19.6354652 19.480038,19.6757372 19.536798,19.7983772 C19.610502,19.9576892 19.750494,20.1022172 19.908486,20.1821132 C20.082846,20.2702892 20.357742,20.2674572 20.545206,20.1755612 C20.694342,20.1024332 20.821446,19.9764092 20.90631,19.8174572 C20.95839,19.7198972 20.96175,19.6844972 20.96895,19.1560172 L20.976534,18.5976812 L20.913678,18.4600172 C20.78403,18.1760972 20.51859,17.9974652 20.229342,17.9995115 C20.137134,18.0001772 20.027022,18.0187292 19.960086,18.0449132 M3.52416603,18.7735772 C3.31541403,18.8327132 3.15235803,18.9698012 3.03948603,19.1810492 C2.98851003,19.2764492 2.98488603,19.3150172 2.97773403,19.8407372 L2.97015003,20.3990732 L3.03300603,20.5367372 C3.24552603,21.0021932 3.80182203,21.1436252 4.19503803,20.8322012 C4.43643003,20.6410172 4.49676603,20.4126812 4.48087803,19.7503772 C4.47159003,19.3627532 4.46611803,19.3202012 4.40981403,19.1983772 C4.33721403,19.0412732 4.19616603,18.8942732 4.04611803,18.8193452 C3.91128603,18.7520012 3.67383003,18.7311692 3.52416603,18.7735772 M6.52416603,18.7735772 C6.31541403,18.8327132 6.15235803,18.9698012 6.03948603,19.1810492 C5.98851003,19.2764492 5.98488603,19.3150172 5.97773403,19.8407372 L5.97015003,20.3990732 L6.03300603,20.5367372 C6.24552603,21.0021932 6.80182203,21.1436252 7.19503803,20.8322012 C7.43643003,20.6410172 7.49676603,20.4126812 7.48087803,19.7503772 C7.47159003,19.3627532 7.46611803,19.3202012 7.40981403,19.1983772 C7.33721403,19.0412732 7.19616603,18.8942732 7.04611803,18.8193452 C6.91128603,18.7520012 6.67383003,18.7311692 6.52416603,18.7735772" id="Shape"></path></g></g></svg>