<svg xmlns="http://www.w3.org/2000/svg" xmlns:xlink="http://www.w3.org/1999/xlink" width="25px" height="24px" viewBox="0 0 25 24"><title>Buildings-Modern--3</title><g id="Page-1" stroke="none" stroke-width="1" fill="none" fill-rule="evenodd"><g id="Buildings-Modern--3" transform="translate(0.000000, -0.000000)" fill="#FFFFFF"><path d="M4.27044687,0.026885116 C4.06037487,0.105437116 3.89890287,0.253109116 3.80782287,0.449957116 C3.75835887,0.556829116 3.75701487,0.594893116 3.74527887,2.22554912 L3.73327887,3.89194112 L2.99724687,4.28954912 C2.59243887,4.50826112 2.20683087,4.72272512 2.14037487,4.76616512 C1.88427087,4.93356512 1.62713487,5.30160512 1.53324687,5.63518112 C1.50903087,5.72117312 1.50139887,7.44871712 1.49573487,14.1131811 L1.48860687,22.4831811 L1.13494287,22.4833731 C0.940422869,22.4834691 0.713478869,22.4945571 0.630606869,22.5079971 C0.142446869,22.5872211 -0.139913131,23.1130371 0.0704468687,23.5511811 C0.154614869,23.7265011 0.281814869,23.8522131 0.457278869,23.9335251 L0.589278869,23.9947011 L12.0012789,23.9947011 L23.4132789,23.9947011 L23.5452789,23.9335251 C23.7249429,23.8502691 23.8466709,23.7267411 23.9437269,23.5292211 C24.0106629,23.3930211 24.0252789,23.3357331 24.0252789,23.2098051 C24.0252789,23.1253971 24.0160869,23.0620371 24.0048309,23.0689731 C23.9935989,23.0759331 23.9720469,23.0403891 23.9569509,22.9899891 C23.9173029,22.8576051 23.7814149,22.6916931 23.6428389,22.6064211 C23.4880389,22.5111651 23.3142069,22.4835891 22.8672789,22.4833731 L22.5132789,22.4831811 L22.5130869,17.7971811 C22.5129909,15.0582771 22.5036309,13.0303731 22.4905509,12.9167091 C22.4537109,12.5964531 22.3314069,12.3169251 22.1245269,12.0802131 C22.0757109,12.0243411 21.8030229,11.7971571 21.5185269,11.5753251 L21.0012789,11.1719811 L21.0012789,9.63984512 C21.0012789,8.19473312 20.9986869,8.10089312 20.9558469,7.98814112 C20.8263429,7.64726912 20.4839829,7.45006112 20.1219909,7.50778112 C19.8825909,7.54594112 19.6638549,7.71744512 19.5564309,7.95118112 C19.5023109,8.06894912 19.5011349,8.08891712 19.4935749,9.02518112 C19.4893269,9.54989312 19.4815509,9.97918112 19.4762949,9.97918112 C19.4710389,9.97918112 18.8211189,9.47652512 18.0319989,8.86217312 C16.4515269,7.63166912 16.3750869,7.58102912 16.0011669,7.51649312 C15.3425829,7.40285312 14.7131109,7.72586912 14.4056949,8.33518112 C14.2447989,8.65414112 14.2568469,8.06309312 14.2569429,15.6294771 L14.2570389,22.4831811 L13.5012069,22.4831811 L12.7453509,22.4831811 L12.7450629,11.9171811 C12.7447269,0.244301116 12.7583829,1.21898912 12.5903589,0.885341116 C12.3622389,0.432365116 11.9348709,0.130517116 11.4295029,0.065453116 C11.2342629,0.040325116 10.9196709,0.074501116 10.7451669,0.139781116 C10.6761909,0.165605116 9.41590287,0.834725116 7.94451087,1.62674912 L5.26927887,3.06677312 L5.25727887,1.81298912 L5.24527887,0.559181116 L5.17855887,0.423317116 C5.10463887,0.272789116 4.97693487,0.144773116 4.82035887,0.064253116 C4.69205487,-0.00174688405 4.40004687,-0.021594884 4.27044687,0.026885116 M8.35327887,3.11642912 C6.78907887,3.95962112 5.33107887,4.74588512 5.11327887,4.86365312 C4.89547887,4.98142112 4.33116687,5.28521312 3.85927887,5.53874912 L3.00127887,5.99974112 L3.00127887,14.2414611 L3.00127887,22.4831811 L4.12815087,22.4831811 L5.25502287,22.4831811 L5.26267887,21.1571811 L5.27033487,19.8311811 L5.33724687,19.6151811 C5.65277487,18.5968131 6.56086287,17.9523891 7.60927887,18.0028851 C8.04307887,18.0237891 8.37324687,18.1300371 8.73843087,18.3662931 C9.17520687,18.6488211 9.50256687,19.0899171 9.66531087,19.6151811 L9.73222287,19.8311811 L9.73987887,21.1571811 L9.74753487,22.4831811 L10.5024069,22.4831811 L11.2572789,22.4831811 L11.2572789,17.2394931 L11.2572789,11.9957811 L8.52727887,11.9894931 L5.79727887,11.9831811 L5.68459887,11.9276691 C5.62263087,11.8971651 5.52725487,11.8275171 5.47265487,11.7729171 C5.32313487,11.6233971 5.27475087,11.5110291 5.26229487,11.2844931 C5.25274287,11.1106371 5.25867087,11.0740851 5.31768687,10.9425651 C5.38474287,10.7931651 5.52507087,10.6396851 5.65702287,10.5714531 C5.81856687,10.4879091 5.97816687,10.4831811 8.63369487,10.4831811 L11.2572789,10.4831811 L11.2572789,9.73970912 L11.2572789,8.99626112 L9.27127887,8.98970912 L7.28527887,8.98318112 L7.18219887,8.92814912 C7.02324687,8.84328512 6.89722287,8.71618112 6.82409487,8.56704512 C6.73219887,8.37958112 6.72936687,8.10468512 6.81754287,7.93032512 C6.89705487,7.77307712 7.04134287,7.63289312 7.20127887,7.55743712 L7.33327887,7.49518112 L9.29527887,7.48824512 L11.2572789,7.48133312 L11.2572789,4.53024512 C11.2572789,2.18426912 11.2511349,1.57961312 11.2272789,1.58126573 C11.2107909,1.58242112 9.91747887,2.27323712 8.35327887,3.11642912 M15.7452789,10.8777891 L15.7452789,12.7363731 L16.5912789,12.7437891 L17.4372789,12.7511811 L17.5731429,12.8179011 C17.7224469,12.8912211 17.8495989,13.0174131 17.9340789,13.1761011 C18.0134709,13.3252851 18.0134709,13.6650771 17.9340789,13.8142611 C17.8495989,13.9729491 17.7224469,14.0991411 17.5731429,14.1724611 L17.4372789,14.2391811 L16.5912789,14.2465731 L15.7452789,14.2539891 L15.7452789,14.9957811 L15.7452789,15.7375731 L17.3472789,15.7443651 L18.9492789,15.7511811 L19.0661349,15.8108691 C19.5383589,16.0520451 19.6455189,16.6599651 19.2798789,17.0234931 C19.2265989,17.0764851 19.1304069,17.1466851 19.0661349,17.1794931 L18.9492789,17.2391811 L17.3472789,17.2459971 L15.7452789,17.2527891 L15.7452789,19.8679971 L15.7452789,22.4831811 L18.3732789,22.4831811 L21.0012789,22.4831811 L21.0012789,17.7837411 L21.0012789,13.0843011 L18.3877509,11.0517411 C16.9502949,9.93382112 15.7676949,9.01918112 15.7597509,9.01918112 C15.7517829,9.01918112 15.7452789,9.85555712 15.7452789,10.8777891 M7.29727887,19.5282051 C7.07412687,19.6015971 6.87869487,19.7808531 6.80206287,19.9825011 C6.76349487,20.0839491 6.75840687,20.2141251 6.75084687,21.2891811 L6.74242287,22.4831811 L7.50127887,22.4831811 L8.26013487,22.4831811 L8.25171087,21.2891811 C8.24225487,19.9457811 8.24520687,19.9692771 8.06043087,19.7593731 C7.91976687,19.5995571 7.75971087,19.5250611 7.53727887,19.5158931 C7.43827887,19.5118371 7.33027887,19.5173571 7.29727887,19.5282051 M0.00934286873,23.2511864 C0.00934286873,23.3501811 0.0135908687,23.3906931 0.0187508687,23.3411811 C0.0239348687,23.2916931 0.0239348687,23.2106931 0.0187508687,23.1611811 C0.0135908687,23.1116931 0.00934286873,23.1521811 0.00934286873,23.2511864" id="Shape"></path></g></g></svg>