<svg xmlns="http://www.w3.org/2000/svg" xmlns:xlink="http://www.w3.org/1999/xlink" width="588px" height="588px" viewBox="0 0 588 588"><title>Group 3</title><defs><polygon id="path-1" points="0 0 587.2285 0 587.2285 587.2289 0 587.2289"></polygon></defs><g id="Page-1" stroke="none" stroke-width="1" fill="none" fill-rule="evenodd"><g id="Group-3"><mask id="mask-2" fill="white"><use xlink:href="#path-1"></use></mask><g id="Clip-2"></g><path d="M426.043,146.7979 C445.45,127.1769 445.653,95.4109 426.071,75.8289 L387.598,37.3589 L365.74,57.7959 L351.399,43.4469 L388.065,9.1749 L440.402,61.5019 C457.926,79.0229 464.826,104.3229 458.969,128.2629 C482.853,122.4129 508.27,129.3099 525.752,146.7909 L581.397,202.4329 C550.927,232.9059 520.461,263.3759 489.991,293.8459 L516.089,321.7659 L501.744,336.1109 L461.8,293.3789 C492.092,263.0839 522.384,232.7889 552.679,202.4969 L511.371,161.1889 C492.006,141.8209 460.379,141.6429 440.815,160.8049 L350.645,250.9149 L378.949,279.2229 L446.013,212.1599 C462.44,195.7319 489.35,195.7319 505.778,212.1599 L517.231,223.6129 L502.841,238.0039 L491.39,226.5509 C482.856,218.0169 468.935,218.0199 460.404,226.5469 L393.341,293.6109 L460.404,360.6739 C464.659,364.9289 470.281,367.0579 475.899,367.0579 C481.507,367.0789 487.125,364.9399 491.39,360.6739 C513.789,338.2759 536.102,315.9629 558.454,293.6109 L531.502,266.6619 L545.893,252.2749 L587.229,293.6109 C560.081,320.7619 532.929,347.9139 505.778,375.0619 C489.35,391.4929 462.444,391.4929 446.013,375.0659 L378.949,308.0019 L350.645,336.3109 C380.658,366.3249 411.015,396.2819 440.808,426.4129 C460.336,445.5329 492.06,445.4039 511.396,426.0709 L549.87,387.5939 L529.437,365.7369 L543.778,351.3919 L578.057,388.0609 L525.727,440.4019 C508.206,457.9229 482.902,464.8229 458.969,458.9659 C464.815,482.8529 457.919,508.2669 440.438,525.7479 L384.796,581.3899 C354.322,550.9229 323.853,520.4579 293.383,489.9879 L265.462,516.0859 L251.117,501.7399 L293.849,461.7929 C324.145,492.0849 354.44,522.3799 384.731,552.6749 L426.039,511.3679 C445.408,491.9989 445.586,460.3759 426.424,440.8079 C396.281,411.0039 366.332,380.6589 336.314,350.6369 L308.005,378.9459 L375.069,446.0129 C391.496,462.4369 391.496,489.3469 375.069,505.7779 L363.619,517.2279 L349.228,502.8369 L360.678,491.3869 C364.943,487.1219 367.083,481.5029 367.09,475.8959 C367.065,470.2769 364.933,464.6519 360.681,460.4009 L293.618,393.3369 L226.554,460.4009 C218.041,468.9139 218.038,482.8699 226.554,491.3829 C248.889,513.7209 271.259,536.0909 293.618,558.4499 L320.563,531.4979 L334.954,545.8859 L293.618,587.2289 C266.466,560.0779 239.318,532.9229 212.163,505.7779 C195.739,489.3429 195.735,462.4369 212.163,446.0129 L279.231,378.9499 L250.922,350.6369 L160.815,440.8009 C141.696,460.3329 141.824,492.0599 161.157,511.3929 L199.634,549.8629 L221.491,529.4299 L235.836,543.7779 L199.164,578.0539 L146.826,525.7229 C129.306,508.2029 122.406,482.8989 128.263,458.9659 C104.376,464.8119 78.962,457.9159 61.481,440.4339 L5.839,384.7889 C36.305,354.3189 66.774,323.8529 97.237,293.3789 L71.144,265.4619 L85.488,251.1179 L125.436,293.8419 C95.144,324.1409 64.849,354.4369 34.553,384.7279 L75.861,426.0359 C95.23,445.4039 126.853,445.5829 146.421,426.4209 L236.591,336.3109 L208.282,308.0019 L141.219,375.0659 C124.791,391.4929 97.882,391.4929 81.45,375.0619 L70,363.6149 L84.392,349.2239 L95.842,360.6739 C104.376,369.2119 118.294,369.2119 126.828,360.6739 L193.891,293.6109 L126.828,226.5469 C118.315,218.0379 104.361,218.0339 95.845,226.5469 C73.507,248.8889 51.138,271.2549 28.782,293.6109 L55.731,320.5589 L41.343,334.9539 L0,293.6109 C27.151,266.4629 54.306,239.3149 81.45,212.1599 C97.885,195.7359 124.788,195.7319 141.219,212.1599 L208.279,279.2229 L236.591,250.9149 L146.802,161.1889 C137.487,151.7719 124.542,146.5629 111.333,146.5629 C98.438,146.5629 85.563,151.4299 75.836,161.1529 L37.366,199.6299 L57.799,221.4879 L43.45,235.8329 L9.175,199.1639 L61.502,146.8299 C74.757,133.5749 92.598,126.2229 111.333,126.2229 C117.023,126.2229 122.712,126.9019 128.263,128.2629 C122.417,104.3789 129.313,78.9589 146.794,61.4769 L202.44,5.8349 C232.909,36.3009 263.376,66.7679 293.849,97.2369 L321.77,71.1399 L336.114,85.4839 L293.383,125.4289 C263.087,95.1369 232.792,64.8449 202.5,34.5499 L161.192,75.8609 C141.824,95.2219 141.646,126.8489 160.811,146.4139 L250.922,236.5839 L279.227,208.2789 L212.163,141.2149 C195.739,124.7879 195.739,97.8789 212.163,81.4509 L223.617,69.9969 L238.004,84.3879 L226.554,95.8379 C218.02,104.3729 218.02,118.2939 226.554,126.8239 L293.618,193.8879 L360.681,126.8239 C369.194,118.3119 369.198,104.3579 360.678,95.8379 C338.34,73.5039 315.974,51.1339 293.618,28.7749 L266.665,55.7269 L252.274,41.3359 L293.618,-0.0001 C320.766,27.1479 347.917,54.2989 375.069,81.4509 C391.496,97.8789 391.5,124.7839 375.069,141.2149 L308.005,208.2789 L336.314,236.5839 L426.043,146.7979 Z M364.562,293.6109 L293.618,222.6669 L222.67,293.6109 L293.618,364.5589 L364.562,293.6109 Z" id="Fill-1" fill="#D4AF37" mask="url(#mask-2)"></path></g></g></svg>