<svg xmlns="http://www.w3.org/2000/svg" xmlns:xlink="http://www.w3.org/1999/xlink" width="1090px" height="200px" viewBox="0 0 1090 200"><title>Group 18 Copy 6</title><defs><polygon id="path-1" points="0 0 127 0 127 139 0 139"></polygon></defs><g id="Page-1" stroke="none" stroke-width="1" fill="none" fill-rule="evenodd"><g id="Group-18-Copy-6"><path d="M88.5,0 C39.6220605,0 0,39.649511 0,88.5613134 C0,156.808868 88.5,195 88.5,195 C88.5,195 177,158.063017 177,88.5613134 C177,39.649511 137.377939,0 88.5,0 M88.5,11.5059521 C130.959189,11.5059521 165.502014,46.0727088 165.502014,88.5613134 C165.502014,141.054343 105.620501,173.984378 88.5574899,182.300305 C71.4571099,173.791654 11.4979862,140.251803 11.4979862,88.5613134 C11.4979862,46.0727088 46.0408114,11.5059521 88.5,11.5059521" id="Fill-1" fill="#FF3333"></path><path d="M88.5,120 C71.654418,120 58,106.345582 58,89.5 C58,72.654418 71.654418,59 88.5,59 C105.345582,59 119,72.654418 119,89.5 C119,106.345582 105.345582,120 88.5,120" id="Fill-3" fill="#FF3333"></path><path d="M230,7 L263.866153,7 L263.866153,72.8322348 C263.866153,79.5228419 263.335425,84.339273 263.335425,84.339273 L263.866153,84.339273 C270.536107,71.2257981 287.068986,57.3119839 310.799677,57.3119839 C340.933525,57.3119839 358,73.0999742 358,109.227525 L358,197 L324.397777,197 L324.397777,116.182993 C324.397777,99.5917845 320.137613,88.3524857 302.798601,88.3524857 C284.9346,88.3524857 271.069703,100.127263 266.003407,116.718472 C264.399749,122.070382 263.866153,127.96065 263.866153,134.380639 L263.866153,197 L230,197 L230,7 Z" id="Fill-5" fill="#21242E"></path><path d="M448.136633,171.07849 C470.061192,171.07849 488.508083,153.939924 488.508083,128.49856 C488.508083,103.32512 470.061192,85.9186292 448.136633,85.9186292 C425.938808,85.9186292 407.491917,103.32512 407.491917,128.49856 C407.491917,153.939924 425.938808,171.07849 448.136633,171.07849 M447.863367,57 C489.578135,57 523,86.7252856 523,128.49856 C523,170.54264 489.578135,200 448.136633,200 C406.424742,200 373,170.54264 373,128.49856 C373,86.7252856 406.424742,57 447.863367,57" id="Fill-7" fill="#21242E"></path><g id="Group-11" transform="translate(537.000000, 61.000000)"><mask id="mask-2" fill="white"><use xlink:href="#path-1"></use></mask><g id="Clip-10"></g><path d="M0,0 L33.8833141,0 L33.8833141,80.4163009 C33.8833141,96.9281118 38.1542477,108.111684 54.9624381,108.111684 C79.5088255,108.111684 93.1138156,86.5409108 93.1138156,62.3117475 L93.1138156,0 L127,0 L127,135.804203 L94.4456121,135.804203 L94.4456121,120.360904 C94.4456121,115.032665 94.9794788,110.772939 94.9794788,110.772939 L94.4456121,110.772939 C87.7751486,124.887042 70.4330915,139.001146 47.2242412,139.001146 C18.1399869,139.001146 0,124.354218 0,87.3401467 L0,0 Z" id="Fill-9" fill="#21242E" mask="url(#mask-2)"></path></g><path d="M687,178.868962 L747.936024,102.334177 C754.053099,94.5997975 759.371547,89.8002363 759.371547,89.8002363 L759.371547,89.2666329 C759.371547,89.2666329 755.38128,89.8002363 746.868327,89.8002363 L689.662087,89.8002363 L689.662087,61 L805.139402,61 L805.139402,79.4007088 L744.209103,155.935493 C738.086303,163.667004 732.501646,168.469434 732.501646,168.469434 L732.501646,169.000169 C732.501646,169.000169 736.491914,168.199764 745.271075,168.199764 L807,168.199764 L807,197 L687,197 L687,178.868962 Z" id="Fill-12" fill="#21242E"></path><path d="M916.690519,111.627919 C916.154164,93.1526079 904.631161,83.2422588 889.618961,83.2422588 C872.196043,83.2422588 860.133801,93.9535024 856.921432,111.627919 L916.690519,111.627919 Z M890.423495,57 C929.825474,57 951,85.653585 951,121.803312 C951,125.822189 950.19835,134.925882 950.19835,134.925882 L855.845836,134.925882 C857.99126,158.759695 876.486891,171.07849 896.856883,171.07849 C918.835943,171.07849 936.258862,156.083325 936.258862,156.083325 L949.393816,180.450108 C949.393816,180.450108 928.484584,200 894.443281,200 C849.147154,200 821,167.327538 821,128.49856 C821,86.4544795 849.68351,57 890.423495,57 L890.423495,57 Z" id="Fill-14" fill="#21242E"></path><path d="M970,178.868962 L1030.9303,102.334177 C1037.0531,94.5997975 1042.37155,89.8002363 1042.37155,89.8002363 L1042.37155,89.2666329 C1042.37155,89.2666329 1038.38128,89.8002363 1029.86833,89.8002363 L972.662087,89.8002363 L972.662087,61 L1088.1394,61 L1088.1394,79.4007088 L1027.2091,155.935493 C1021.0863,163.667004 1015.50165,168.469434 1015.50165,168.469434 L1015.50165,169.000169 C1015.50165,169.000169 1019.49191,168.199764 1028.27107,168.199764 L1090,168.199764 L1090,197 L970,197 L970,178.868962 Z" id="Fill-16" fill="#21242E"></path></g></g></svg>