<svg xmlns="http://www.w3.org/2000/svg" viewBox="0 0 24 24" id="Real-Estate-Action-House-Ribbon--Streamline-Streamline--3.0.svg"><path d="M11.324016 0.54C10.983552000000001 0.604584 10.697952 0.7334160000000001 10.402848 0.95556C10.297872 1.034568 8.231064 2.776992 5.809920000000001 4.8276C1.610784 8.384112 1.4044320000000001 8.562576 1.33392 8.69856C1.2678 8.826096000000001 1.2601200000000001 8.862816 1.261104 9.04656C1.261992 9.211511999999999 1.27284 9.272304 1.316136 9.355080000000001C1.451376 9.613536 1.6806720000000002 9.766176 1.962936 9.78564C2.280768 9.807576000000001 1.9350720000000001 10.080864 6.840552000000001 5.929464C9.28884 3.8575199999999996 11.346 2.132064 11.412 2.095152C11.518728000000001 2.035416 11.55588 2.0280240000000003 11.748000000000001 2.0281919999999998C11.93196 2.02836 11.980656000000002 2.037264 12.076296 2.088192C12.138048000000001 2.121096 13.497072000000001 3.255 15.09636 4.6080000000000005C16.695624 5.961 18.04788 7.097592000000001 18.101352 7.1337839999999995C18.278712000000002 7.253784 18.505536 7.280592 18.74412 7.209744000000001C18.930024 7.154520000000001 19.149456 6.931272 19.210392 6.735336C19.269023999999998 6.546816 19.252104000000003 6.333912000000001 19.164168 6.1542C19.102608 6.028344000000001 18.927504 5.87568 16.135104000000002 3.51288C14.505072000000002 2.1336239999999997 13.121136000000002 0.96768 13.059696 0.921912C12.893160000000002 0.797856 12.541319999999999 0.631752 12.324 0.574584C12.070752 0.507984 11.581944 0.491064 11.324016 0.54M16.764 0.823872C16.539816000000002 0.911784 16.37748 1.072344 16.296864 1.2859440000000002C16.159656 1.649448 16.333944000000002 2.056632 16.70028 2.2283760000000004L16.836000000000002 2.2920000000000003 18.04116 2.2995840000000003L19.246344 2.3071680000000003 19.25316 3.523584C19.26 4.739568 19.260024 4.740048000000001 19.315488000000002 4.852632000000001C19.44708 5.119824 19.700544 5.282472 19.984656 5.2820160000000005C20.074488000000002 5.281872 20.183472 5.271216 20.22684 5.258304C20.411256 5.203464 20.604744 5.02584 20.696712 4.8269280000000006C20.747208 4.717728 20.74812 4.69152 20.75508 3.144C20.763024 1.3744800000000001 20.759688 1.3247280000000001 20.619456 1.12332C20.52288 0.9846 20.351232 0.8553839999999999 20.212248000000002 0.8167920000000001C20.080368 0.7801440000000001 16.858632 0.786792 16.764 0.823872M17.316 8.303904C16.522104000000002 8.370912 15.739296 8.621903999999999 15.071928 9.023448C13.739472 9.825144 12.844752 11.122824000000001 12.572832000000002 12.648C12.50976 13.001688 12.486047999999998 13.73496 12.526248 14.088384C12.624936 14.956392000000001 12.907608 15.738072 13.382088 16.455096C13.522176 16.666800000000002 13.780104000000001 16.993104000000002 13.880976 17.086176C13.924248 17.126136000000002 13.944 17.168904 13.944 17.222712C13.944 17.265792 13.830816 18.476208 13.692456 19.912512C13.544304 21.450696 13.44708 22.563456000000002 13.455912000000001 22.62C13.49124 22.846368000000002 13.668287999999999 23.078832000000002 13.885008000000001 23.183472C13.979256000000001 23.228976 14.043936 23.24112 14.196 23.241864L14.388 23.242800000000003 16.118712000000002 22.528920000000003L17.849424 21.81504 19.538712 22.509096C20.467824 22.890816 21.2766 23.216184000000002 21.336000000000002 23.232143999999998C21.553104 23.29044 21.821448 23.217672 22.006800000000002 23.050224C22.1526 22.918512 22.22952 22.753152 22.24044 22.548000000000002C22.245816 22.44708 22.144776 21.30216 21.987456 19.680792L21.72552 16.981608 21.875712 16.788792C22.617984000000003 15.835920000000002 22.991496 14.753808 22.991880000000002 13.555224C22.992072 12.933216 22.9248 12.483264 22.750008 11.937552C22.139904 10.032624 20.476344 8.623968 18.504 8.342208C18.18048 8.295984 17.622864 8.278008 17.316 8.303904M4.764 9.823872C4.541376 9.911159999999999 4.377144 10.072656 4.29924 10.280856000000002L4.248 10.4178 4.248 14.33112C4.248 18.147096 4.2492 18.250296 4.295904 18.479496C4.458024 19.275072 5.006616 19.902024 5.775816 20.170752C6.11544 20.289408 6.162192 20.292 7.968 20.292L9.66 20.292 9.79728 20.227656C10.158216000000001 20.05848 10.33488 19.65552 10.209456000000001 19.287432000000003C10.160352000000001 19.143336 9.969 18.932544 9.821184 18.859752L9.708 18.804000000000002 8.016 18.792L6.324 18.78 6.201624000000001 18.724608C6.058152 18.659664 5.906856 18.511992 5.828016 18.36L5.772 18.252 5.759544 14.316C5.749872 11.26488 5.740368 10.361112 5.717232 10.296C5.643816 10.089432 5.414688 9.873024 5.20884 9.815832C5.095728 9.784416 4.853472 9.788808000000001 4.764 9.823872M17.360447999999998 9.8166C16.536624 9.903384 15.769728 10.260456 15.171024 10.836C14.719752 11.269848 14.448696 11.683176 14.230104 12.270816C14.077224000000001 12.681768000000002 14.013 13.063032 14.013672000000001 13.555392C14.015064 14.565552 14.390664 15.468623999999998 15.107616000000002 16.185552C16.181928 17.259864 17.767319999999998 17.575152 19.182168 16.995816C20.374224 16.507728 21.233424 15.422352 21.44604 14.136000000000001C21.49164 13.860047999999999 21.497496 13.285272 21.457416 13.02C21.304776 12.009888 20.78832 11.140536 19.98 10.533C19.250328 9.984552 18.2814 9.719568 17.360447999999998 9.8166M17.472 11.305463999999999C16.586304000000002 11.411544 15.847608000000001 12.047304 15.58572 12.928896C15.509784 13.184544 15.483072000000002 13.618800000000002 15.526224000000001 13.89588C15.642552 14.642520000000001 16.174944 15.32232 16.870104 15.611880000000001C17.237568 15.764928 17.705688 15.826512 18.064512 15.769032000000001C18.965352 15.624696 19.65372 15.02736 19.910616 14.167128000000002C19.996104000000003 13.880808 20.017128 13.398624 19.957056 13.10184C19.7232 11.946696 18.64224 11.165304 17.472 11.305463999999999M17.542776 12.8232C17.406264 12.861888 17.228424 12.987863999999998 17.149992 13.101432C17.049888000000003 13.246392 17.01372 13.361832000000001 17.013168 13.538160000000001C17.01228 13.819632 17.154168 14.058696 17.404344000000002 14.197296C17.519280000000002 14.260944 17.553528 14.267976 17.748 14.267784C17.935248 14.267591999999999 17.980176 14.259048 18.085512 14.203632C18.211944 14.137152 18.355968 13.995816 18.4164 13.87896C18.475872 13.763976000000001 18.505056 13.548143999999999 18.479424 13.413C18.432528 13.165752 18.257640000000002 12.943056 18.038352 12.851448C17.914128 12.799536 17.674512 12.78588 17.542776 12.8232M20.00628 18.27816C18.641304 18.94548 16.983264 18.96024 15.569544 18.317664C15.466992 18.271032 15.379104000000002 18.237192 15.374256 18.242448C15.359784 18.258072000000002 15.070992 21.294984000000003 15.082848 21.30684C15.088848 21.31284 15.66396 21.082872 16.360872 20.795784C17.51076 20.32212 17.643792 20.272728 17.798712000000002 20.261976C17.90424 20.254632 18.005064 20.261784 18.062712 20.280672C18.114024 20.297472 18.705456 20.536872 19.377 20.812632C20.048544 21.088392 20.604312 21.307704 20.61204 21.299976C20.623224 21.288768 20.332704 18.138984 20.3196 18.12936C20.317608 18.12792 20.176632 18.19488 20.00628 18.27816" stroke="none" fill="currentColor" fill-rule="evenodd"></path></svg>