<svg xmlns="http://www.w3.org/2000/svg" viewBox="0 0 24 24" id="Real-Estate-Message-House-Buy--Streamline-Streamline--3.0.svg"><path d="M15.468 0.036744C13.322712000000001 0.251376 11.343143999999999 1.364592 10.062072 3.076776C8.985984 4.515024 8.442096000000001 6.225312 8.505408 7.971864C8.548176 9.151272 8.799864 10.161912000000001 9.298752 11.157504000000001L9.454583999999999 11.468472 8.495592 13.4814C7.85304 14.830104000000002 7.528416000000001 15.537456 7.511808 15.625008000000001C7.4638800000000005 15.877704000000001 7.5577440000000005 16.133424 7.765536000000001 16.316328C7.974431999999999 16.500216 8.285712 16.545888 8.55792 16.432560000000002C8.636064000000001 16.400016 9.56124 15.962544 10.61388 15.460416L12.52776 14.547432 12.80988 14.687784C15.238392 15.896111999999999 18.129096 15.747672000000001 20.412 14.297448C22.308072000000003 13.092936 23.574264 11.155848 23.929608 8.916C23.995296 8.501904 24.022248 7.432055999999999 23.977848 7.000871999999999C23.679503999999998 4.103976 21.847656 1.649856 19.176000000000002 0.567816C18.011424 0.09616799999999999 16.721136 -0.088656 15.468 0.036744M15.672 1.528344C14.864016 1.6115519999999999 14.210832000000002 1.7979600000000002 13.5 2.148168C12.818712000000001 2.4838080000000002 12.319056 2.841768 11.803488 3.363552C11.20848 3.965688 10.746216 4.677072 10.433375999999999 5.472C9.75108 7.205664 9.894792 9.212352000000001 10.815576 10.808736C11.053368 11.220960000000002 11.084783999999999 11.324736 11.041968 11.556312C11.024592 11.650392 10.845288 12.053928 10.473048 12.836832000000001C10.174128000000001 13.465584000000002 9.908952 14.020944 9.883776000000001 14.070984000000001L9.838008 14.161992 9.929016 14.116224C9.979056 14.091047999999999 10.534416 13.825872 11.163168 13.526952000000001C11.946072 13.154712000000002 12.349608 12.975408000000002 12.443688 12.958032000000001C12.673248000000001 12.9156 12.790056 12.950591999999999 13.181208 13.179048C13.661376 13.459488 14.343792 13.721088 14.930568 13.849656C15.708863999999998 14.020199999999999 16.560264 14.0364 17.354736000000003 13.895760000000001C18.365976 13.716792 19.382376 13.254336 20.181383999999998 12.609672000000002C22.021079999999998 11.125392 22.861871999999998 8.746656 22.365000000000002 6.432C21.88128 4.178616 20.174496 2.364888 17.948832000000003 1.739112C17.372591999999997 1.577088 16.85748 1.51056 16.220088 1.5158399999999999C15.964848 1.517952 15.7182 1.523568 15.672 1.528344M15.850176 3.047928C15.615432 3.1410240000000003 15.416784 3.3918239999999997 15.386712000000001 3.6329759999999998L15.372 3.750984 15.168000000000001 3.792264C14.361287999999998 3.955536 13.72728 4.58676 13.543895999999998 5.40924C13.486656 5.665992 13.493112 6.107304 13.557623999999999 6.348C13.710312000000002 6.917568000000001 14.103672000000001 7.424856000000001 14.587319999999998 7.675871999999999C14.688888 7.728599999999999 15.235488 7.956984 15.801984000000001 8.1834C16.368479999999998 8.40984 16.87272 8.61588 16.922520000000002 8.641295999999999C17.13588 8.750136 17.243952 8.948039999999999 17.227895999999998 9.200424C17.215152 9.400464 17.122896 9.556944000000001 16.957296 9.659376L16.839864 9.732 15.637944000000001 9.744C14.468280000000002 9.755688000000001 14.432976 9.757392 14.323296 9.80808C14.178743999999998 9.874872 14.002536 10.051224 13.93644 10.195295999999999C13.863888000000001 10.353408 13.863888000000001 10.646592 13.93644 10.804704000000001C14.002656 10.949016 14.178984000000002 11.125344 14.323296 11.19156C14.424024 11.237784 14.486328 11.244192 14.91 11.2518L15.384 11.260344 15.38424 11.34816C15.384816 11.568168 15.615912 11.861232000000001 15.862079999999999 11.954184C15.966864 11.993736 16.032912 12.002448 16.165584000000003 11.994264000000001C16.377216 11.981184 16.523880000000002 11.911584 16.670736 11.754576C16.790664 11.626392000000001 16.845984 11.514096 16.869048 11.352C16.882176 11.25984 16.893192000000003 11.242944000000001 16.944216 11.236776C17.100912 11.217816000000001 17.402160000000002 11.12484 17.554704 11.048352000000001C18.338016 10.655592 18.773232 9.925080000000001 18.737544 9.062928000000001C18.723696 8.728200000000001 18.684432 8.563152 18.552984000000002 8.287056C18.384336 7.932840000000001 18.161304 7.660416000000001 17.867208 7.449479999999999C17.681064 7.315968 17.595936000000002 7.2782160000000005 16.43736 6.81564C15.838199999999999 6.576432 15.307584 6.35436 15.258216000000001 6.322152C15.139584000000001 6.2448 15.053472 6.110352000000001 15.020040000000002 5.950248C14.966904 5.695728 15.10536 5.425344000000001 15.346295999999999 5.313144L15.468 5.256480000000001 16.579368000000002 5.25624C17.336280000000002 5.256072 17.726664 5.247168 17.803368000000003 5.228352C18.136728 5.146488000000001 18.366912 4.848984 18.366912 4.5C18.366912 4.234656 18.253895999999997 4.02096 18.038952000000002 3.87996C17.864112 3.765264 17.745576 3.744 17.281368 3.744L16.872 3.744 16.872 3.676272C16.872 3.470016 16.67184 3.1843679999999996 16.449552 3.0733440000000005C16.287432000000003 2.992368 16.01892 2.980992 15.850176 3.047928M6.618456 10.510224C6.569208 10.520159999999999 6.488208 10.546752 6.438456 10.569288C6.388704000000001 10.591848 4.971048000000001 11.643888 3.28812 12.907152C1.1728560000000001 14.494944 0.20419199999999998 15.235992 0.150336 15.307584C-0.010248 15.521111999999999 -0.001224 15.255432 0.005712 19.561128L0.012 23.46 0.075936 23.580000000000002C0.152544 23.723832 0.284856 23.854416 0.432 23.931456L0.54 23.988 6.712608 23.994192L12.885216 24.00036 13.017912 23.950728C13.186536 23.887632 13.351272 23.729328 13.435656 23.54928L13.5 23.412 13.5 20.304000000000002L13.5 17.196 13.437287999999999 17.064C13.201008000000002 16.5666 12.547824 16.461456000000002 12.193656 16.863816C12.140832 16.92384 12.075648 17.031624 12.048792 17.10336C12.000816 17.231592 12 17.2782 12 19.860912L12 22.488 6.756 22.488L1.512 22.488 1.513032 19.302L1.514088 16.116 4.0124640000000005 14.244C5.38656 13.214400000000001 6.54696 12.346079999999999 6.591096 12.314400000000001L6.6713759999999995 12.256776 6.877248000000001 12.454439999999998C7.104864 12.672936 7.221744 12.736968000000001 7.4334240000000005 12.759096000000001C7.922736 12.81024 8.333856 12.35448 8.234112000000001 11.87148C8.216472 11.786159999999999 8.170824000000001 11.676312 8.123376 11.605128C7.992792000000001 11.409192 7.182384000000001 10.618608 7.055712 10.563552000000001C6.927456 10.5078 6.742272 10.485216000000001 6.618456 10.510224" stroke="none" fill="currentColor" fill-rule="evenodd"></path></svg>