<svg xmlns="http://www.w3.org/2000/svg" xmlns:xlink="http://www.w3.org/1999/xlink" width="24px" height="20px" viewBox="0 0 24 20"><title>House-Modern--3</title><g id="Page-1" stroke="none" stroke-width="1" fill="none" fill-rule="evenodd"><g id="House-Modern--3" transform="translate(0.002327, 0.671147)" fill="#FFFFFF"><path d="M8.08695143,0.021898004 C7.84392743,0.074722004 7.66563143,0.213346004 7.55710343,0.433882004 C7.50917543,0.531250004 7.49904743,0.587914004 7.49952743,0.756034004 C7.5,0.928954004 7.50967943,0.978322004 7.56303143,1.080034 C7.69229543,1.326586 7.74996743,1.36453 8.47709543,1.681594 L9.02321543,1.919746 L9.01709543,3.982066 L9.01095143,6.044386 L4.78695143,6.891298 C2.46375143,7.35709 0.514975427,7.756498 0.456367427,7.778866 C0.397735427,7.80121 0.305167427,7.86061 0.250663427,7.910842 C0.0185354271,8.124826 -0.0606405729,8.446666 0.0480314271,8.734618 C0.140911427,8.980738 0.393031427,9.183298 0.650407427,9.218578 C0.743815427,9.231394 1.18229543,9.16453 1.48095143,9.091954 L1.53495143,9.078826 L1.53495143,13.113442 L1.53495143,17.148034 L1.09121543,17.148034 C0.711343427,17.148034 0.629959427,17.154682 0.525871427,17.194234 C0.235927427,17.304418 0.0463274271,17.572018 0.0440234271,17.874394 C0.0408314271,18.290314 0.294655427,18.580618 0.711751427,18.638146 C0.811951427,18.65197 5.22420743,18.65821 12.1429514,18.654346 L23.4109514,18.648034 L23.5474154,18.584074 C23.8436954,18.445186 24.0126314,18.168706 23.9932154,17.85445 C23.9798474,17.638282 23.9083754,17.491738 23.7421994,17.339866 C23.5544474,17.168266 23.4709274,17.148034 22.9506794,17.148034 L22.5109514,17.148034 L22.5109514,12.492034 C22.5109514,9.852634 22.5200234,7.836034 22.5319274,7.836034 C22.5434474,7.836034 22.6529834,7.880458 22.7753354,7.93477 C23.0711114,8.06605 23.2476794,8.096026 23.4229514,8.044642 C23.6159354,7.988098 23.7685274,7.881178 23.8645994,7.73521 C24.0194954,7.49989 24.0374234,7.232218 23.9150474,6.98209 C23.8095674,6.766474 23.7030554,6.695218 23.0769674,6.421426 L22.5122474,6.174466 L22.5055994,3.71125 C22.4989754,1.252786 22.4988554,1.247818 22.4476634,1.137106 C22.3812554,0.993490004 22.2434234,0.842098004 22.1049674,0.760714004 L21.9949514,0.696034004 L20.2549514,0.696034004 L18.5149514,0.696034004 L18.4069514,0.760066004 C18.2589194,0.847834004 18.1319594,0.984898004 18.0661274,1.128034 L18.0109514,1.248034 L18.0039194,2.718034 C18.0000554,3.526546 17.9922554,4.188034 17.9866154,4.188034 C17.9809754,4.188034 16.1643434,3.395746 13.9496474,2.427394 C11.7349754,1.459042 9.59760743,0.524842004 9.19995143,0.351394004 C8.80231943,0.177946004 8.44051943,0.029914004 8.39595143,0.022450004 C8.35140743,0.014986004 8.29335143,0.00536200403 8.26695143,0.00104200403 C8.24055143,-0.00325399597 8.15955143,0.00613000403 8.08695143,0.021898004 M19.5167594,3.517858 L19.5229514,4.863682 L20.2069514,5.163874 C20.5831514,5.32897 20.9152634,5.47369 20.9449514,5.48545 L20.9989514,5.506834 L20.9989514,3.839434 L20.9989514,2.172034 L20.2547594,2.172034 L19.5105434,2.172034 L19.5167594,3.517858 M10.5349514,9.86545 L10.5349514,17.148034 L11.2780634,17.148034 L12.0211994,17.148034 L12.0287354,15.066034 L12.0362474,12.984034 L12.0905834,12.804034 C12.3543914,11.930002 13.0685594,11.307058 13.9595594,11.173834 C14.2351994,11.132626 17.3560394,11.139226 17.6149514,11.181586 C18.4851194,11.323906 19.1836874,11.943778 19.4433194,12.804034 L19.4976554,12.984034 L19.5051674,15.066034 L19.5127034,17.148034 L20.2558874,17.148034 L20.9990714,17.148034 L20.9929994,12.15169 L20.9869514,7.155346 L16.0309514,4.988434 C13.3051514,3.796618 10.9534634,2.76781 10.8049514,2.702194 L10.5349514,2.582866 L10.5349514,9.86545 M12.5089754,5.568418 C12.3070874,5.61229 12.1351754,5.709034 11.9755754,5.868658 C11.4570314,6.387202 11.5495274,7.223818 12.1693514,7.62157 C12.5172314,7.844794 13.0175354,7.844242 13.3666154,7.62025 C13.9762394,7.22905 14.0707034,6.37381 13.5598634,5.870842 C13.3903514,5.703946 13.2252074,5.61217 13.0136714,5.567338 C12.8161754,5.525506 12.7055114,5.525746 12.5089754,5.568418 M5.99295143,8.192314 L3.04695143,8.783794 L3.04695143,12.965914 L3.04695143,17.148034 L6.03495143,17.148034 L9.02295143,17.148034 L9.02295143,12.372034 C9.02295143,7.838554 9.02081543,7.596154 8.98095143,7.59841846 C8.95786343,7.599754 7.61326343,7.866994 5.99295143,8.192314 M13.9924634,12.712642 C13.8442634,12.769522 13.6649594,12.934402 13.5989354,13.074466 C13.5754874,13.124194 13.5461594,13.226794 13.5337514,13.302466 C13.5211034,13.379722 13.5111674,14.25289 13.5110954,15.294034 L13.5109514,17.148034 L15.7510154,17.148034 L17.9910554,17.148034 L18.0069194,15.294034 C18.0166394,14.15785 18.0139754,13.38637 18.0000314,13.30141 C17.9544794,13.02397 17.7772874,12.802258 17.5259594,12.708226 C17.4014714,12.661642 17.3421914,12.660082 15.7600394,12.661282 C14.1592634,12.662506 14.1200474,12.663658 13.9924634,12.712642" id="Shape"></path></g></g></svg>