<svg xmlns="http://www.w3.org/2000/svg" xmlns:xlink="http://www.w3.org/1999/xlink" width="25px" height="24px" viewBox="0 0 25 24"><title>House-Nature--3</title><g id="Page-1" stroke="none" stroke-width="1" fill="none" fill-rule="evenodd"><g id="House-Nature--3" transform="translate(0.003558, 0.043672)" fill="#FFFFFF"><path d="M3.21825689,0.0372369198 C2.75371289,0.10491692 2.31780089,0.25213292 1.90879289,0.47943692 C1.10359289,0.92698892 0.446472895,1.72566092 0.171072895,2.59150892 C0.0307928947,3.03255692 0.0101768947,3.18001292 0.00993318039,3.74350892 C0.0097448947,4.19394092 0.0168488947,4.29277292 0.0657608947,4.52137292 C0.216864895,5.22742892 0.552792895,5.85306092 1.05372089,6.36133292 C1.64536889,6.96166892 2.31590489,7.31355692 3.14143289,7.45690892 C3.33674489,7.49082092 3.54307289,7.49566892 4.56972089,7.49048492 C6.45696089,7.48095692 8.58878489,7.44298892 8.73638489,7.41627692 C9.55140089,7.26872492 10.2842889,6.79412492 10.7368329,6.12082892 C11.7500889,4.61329292 11.1996249,2.56638092 9.56496089,1.76319692 C9.12556889,1.54729292 8.75128889,1.45971692 8.26572089,1.45918892 C7.85623289,1.45873292 7.50372089,1.53085292 7.11535289,1.69453292 C7.01064089,1.73864492 6.92328089,1.77222092 6.92124089,1.76912492 C6.70363289,1.44140492 6.48583289,1.18078892 6.26236889,0.98072492 C5.42078489,0.22724492 4.29948089,-0.12029908 3.21825689,0.0372369198 M3.26172089,1.55710892 C2.67132089,1.68754892 2.21416889,2.00034092 1.86314489,2.51403692 C1.35379289,3.25945292 1.37136089,4.30110092 1.90591289,5.05150892 C2.02365689,5.21679692 2.31067289,5.49990092 2.47132889,5.60919692 C2.73520889,5.78874092 3.03057689,5.90739692 3.35772089,5.96533292 C3.53721689,5.99710892 3.85132889,5.99821292 5.97372089,5.97442892 C8.64400889,5.94452492 8.58434489,5.94834092 8.91372089,5.78547692 C9.26546489,5.61152492 9.55132889,5.28426092 9.67116089,4.91830892 C9.75544889,4.66098092 9.75544889,4.24203692 9.67116089,3.98470892 C9.55132889,3.61873292 9.26544089,3.29144492 8.91372089,3.11756492 C8.33328089,2.83059692 7.74681689,2.92467692 7.26338489,3.38226092 C7.00965689,3.62245292 6.90069689,3.68031692 6.68102489,3.69157292 C6.47596889,3.70208492 6.35472089,3.67186892 6.20556089,3.57306092 C6.05155289,3.47106092 5.96695289,3.33903692 5.85861689,3.03157292 C5.73823289,2.68998092 5.60032889,2.45922092 5.37660089,2.22495692 C5.15066489,1.98838892 4.96476089,1.85396492 4.67416889,1.71699692 C4.34628089,1.56246092 4.21473689,1.53258092 3.81372089,1.52158892 C3.53524889,1.51393292 3.42496889,1.52103692 3.26172089,1.55710892 M18.5497209,5.97394892 C18.2747529,6.05790092 18.1635849,6.18478892 17.9174649,6.69550892 C16.8835929,8.84108492 15.8773449,11.6920209 15.4186089,13.7755089 C15.1514169,14.9890449 15.0340809,15.8709729 15.0066969,16.8715089 C14.9949129,17.3024529 14.9998089,17.4672369 15.0308889,17.6875089 C15.1520169,18.5457009 15.4981929,19.2439809 16.1017209,19.8475089 C16.2403209,19.9861089 16.4563209,20.1724449 16.5817209,20.2615809 C16.9425369,20.5180929 17.4455529,20.7457569 17.8957209,20.8563009 L17.9977209,20.8813569 L17.9977209,21.6604449 L17.9977209,22.4395089 L14.9977209,22.4395089 L11.9977209,22.4395089 L11.9977209,19.6435089 C11.9977209,18.1057089 12.0030489,16.8475089 12.0095769,16.8475089 C12.0161049,16.8475089 12.1087929,16.9122609 12.2155209,16.9913889 C12.5264409,17.2219329 12.7708809,17.2615809 13.0614009,17.1285729 C13.5265209,16.9156449 13.6452489,16.2914529 13.2886569,15.9339249 C13.1792409,15.8242209 7.20117689,11.3430609 7.07328089,11.2748529 C6.93511289,11.2011969 6.55980089,11.1943809 6.43356089,11.2632369 C6.27084089,11.3520129 0.217392895,15.9099489 0.159432895,15.9873249 C0.0334808947,16.1555169 0.0115448947,16.2239169 0.0106088947,16.4515089 C0.0098648947,16.6318449 0.0188168947,16.6845249 0.0647528947,16.7705889 C0.198384895,17.0208369 0.425352895,17.1767889 0.691008895,17.2008609 C0.921288895,17.2217649 1.06084889,17.1633489 1.40772089,16.9008369 L1.48572089,16.8418209 L1.48572089,19.6377729 L1.48572089,22.4337249 L1.03572089,22.4437329 C0.611304895,22.4531649 0.577920895,22.4573169 0.448440895,22.5169569 C-0.140855105,22.7883969 -0.151679105,23.5785729 0.429720895,23.8829649 L0.537720895,23.9395089 L11.9977209,23.9395089 L23.4577209,23.9395089 L23.5786809,23.8756449 C23.7276009,23.7970449 23.8755129,23.6389569 23.9343609,23.4955089 C23.9587209,23.4361089 23.9883369,23.3687649 24.0001929,23.3458449 C24.0267129,23.2944849 24.0290169,23.0081649 24.0027609,23.0243889 C23.9923209,23.0308449 23.9651769,22.9837329 23.9424249,22.9196769 C23.8886649,22.7682849 23.7216249,22.5976929 23.5470009,22.5158529 L23.4097209,22.4515089 L21.4597209,22.4445729 L19.5097209,22.4376369 L19.5097209,21.6595089 L19.5097209,20.8813569 L19.6117209,20.8546449 C21.1006569,20.4646209 22.1534889,19.3547649 22.4391849,17.8740129 C22.5666969,17.2130289 22.4728329,15.8043489 22.2079449,14.4042609 C21.8028249,12.2629569 20.8712649,9.49326092 19.7039529,6.95950892 C19.4275929,6.35962892 19.3435449,6.21606092 19.2084489,6.11317292 C19.0244169,5.97303692 18.7457049,5.91411692 18.5497209,5.97394892 M18.6822729,8.67618092 C18.5458089,8.98390892 18.1115289,10.0953969 17.9182569,10.6315089 C17.3029449,12.3384849 16.8726969,13.9293249 16.6655529,15.2635089 C16.5528729,15.9891489 16.5250089,16.3259889 16.5234969,16.9795089 C16.5221049,17.5949649 16.5229929,17.6063889 16.5880569,17.8144209 C16.7153529,18.2212929 16.9110489,18.5435169 17.1970329,18.8169729 C17.4711609,19.0791009 17.7542649,19.2430449 18.1348089,19.3600209 C18.3268569,19.4190609 18.3811449,19.4249649 18.7417209,19.4259443 C19.0833369,19.4267649 19.1640969,19.4193969 19.3297209,19.3723089 C19.9544889,19.1947089 20.4772089,18.7594689 20.7577449,18.1832289 C20.9502009,17.7879729 20.9860329,17.6015649 20.9822649,17.0155089 C20.9713449,15.3162849 20.4714729,13.0841649 19.5096009,10.4395089 C19.3785369,10.0791249 18.8105769,8.64848492 18.7692729,8.57468492 C18.7497609,8.53986092 18.7351929,8.55685292 18.6822729,8.67618092 M4.87382489,14.3003889 L2.99772089,15.7073169 L2.99772089,19.0734129 L2.99772089,22.4395089 L3.73970489,22.4395089 L4.48171289,22.4395089 L4.49229689,21.1735089 C4.50141689,20.0832129 4.50866489,19.8825489 4.54449689,19.7277249 C4.73748089,18.8937969 5.36037689,18.2446689 6.18496889,18.0181569 C6.33710489,17.9763729 6.43752089,17.9673729 6.75372089,17.9671809 C7.10380889,17.9669889 7.15665689,17.9727489 7.35218489,18.0324129 C8.13616889,18.2717169 8.67355289,18.8087649 8.91780089,19.5970449 L8.98425689,19.8115089 L8.99229689,21.1255089 L9.00036089,22.4395089 L9.74304089,22.4395089 L10.4857209,22.4395089 L10.4857209,19.0676289 L10.4857209,15.6957489 L8.61782489,14.2946049 L6.74995289,12.8934369 L4.87382489,14.3003889 M6.48331289,19.5021249 C6.33717689,19.5558609 6.13562489,19.7489169 6.06688889,19.9010289 L6.00972089,20.0275089 L6.00268889,21.2335089 L5.99563289,22.4395089 L6.74150489,22.4395089 L7.48737689,22.4395089 L7.48056089,21.2095089 C7.47374489,19.9852449 7.47345689,19.9790289 7.41957689,19.8781809 C7.33852889,19.7265009 7.23950489,19.6248129 7.09766489,19.5476289 C6.99266489,19.4904609 6.93657689,19.4770929 6.77800889,19.4713809 C6.64759289,19.4667009 6.55276889,19.4765889 6.48331289,19.5021249 M0.0055928947,23.1955089 C0.0057128947,23.2879089 0.0100328947,23.3227569 0.0152408947,23.2729809 C0.0204248947,23.2231809 0.0203528947,23.1475809 0.0150488947,23.1049809 C0.0097448947,23.0623569 0.0054968947,23.1031089 0.0055928947,23.1955089" id="Shape"></path></g></g></svg>