<svg xmlns="http://www.w3.org/2000/svg" viewBox="0 0 24 24" id="Phone-Circle--Streamline-Streamline--3.0.svg"><path d="M11.328 0.025752C8.435232000000001 0.192912 5.692584 1.4014080000000002 3.626592 3.4192080000000002C1.56552 5.432256 0.349992 7.9724639999999996 0.043128 10.908C-0.004104 11.359896 0.00372 12.764784 0.056063999999999996 13.224C0.290112 15.278160000000002 0.934752 17.060351999999998 2.039664 18.708000000000002C2.554368 19.475544 3.0814800000000004 20.09472 3.7800000000000002 20.75232C4.318416 21.259176 4.773936 21.620928 5.3709359999999995 22.015800000000002C7.073016 23.141544 8.982096 23.805623999999998 11.004 23.975328C11.453352 24.013056 12.719784 24.005904 13.177512 23.963088C14.541672 23.835456 15.674088 23.484504 16.518743999999998 22.927560000000003C17.441736000000002 22.318968 18.022992 21.493128000000002 18.240792 20.480976000000002C18.306216 20.176920000000003 18.331704000000002 19.45572 18.289224 19.111224C18.261336 18.885144 18.164640000000002 18.388488000000002 18.133296 18.310344C18.122424 18.283224 18.173928 18.228888 18.317088000000002 18.116424000000002C18.572232 17.915952 19.083096 17.42436 19.254216 17.214624C19.428312000000002 17.001216 19.544688 16.784328 19.611864 16.548000000000002C19.682232 16.300464 19.688544 15.815136000000003 19.62444 15.583152C19.498488000000002 15.127584 19.440672 15.05664 18.139584000000003 13.762152C17.063472 12.691464000000002 16.993872 12.62712 16.810632 12.533351999999999C16.511616 12.380328 16.291248 12.328344000000001 15.948 12.329808C15.489504 12.331776 15.15072 12.447552000000002 14.824104000000002 12.713928C14.563632 12.926328 14.545800000000002 12.936 14.41464 12.936L14.292408000000002 12.936 12.69156 11.334C11.605080000000001 10.246728000000001 11.085576 9.710735999999999 11.074704 9.665832C11.0454 9.544608 11.084208 9.444792000000001 11.222472 9.285768C11.399088 9.082632 11.534472000000001 8.851728 11.611248000000002 8.622672000000001C11.66796 8.453448 11.673792 8.401224 11.673744000000001 8.064C11.673696 7.7245680000000005 11.66808 7.6752 11.609472 7.5C11.480184000000001 7.113552 11.462376 7.092504000000001 10.188936 5.819064C9.070464 4.7005680000000005 9.00228 4.637087999999999 8.81652 4.5407280000000005C8.538 4.396248 8.306256 4.341888 7.968 4.341624C7.524816 4.341312 7.194072 4.448424 6.86256 4.699632C6.636816 4.870704 5.989824 5.547791999999999 5.801664 5.809872C5.517792 6.205272 5.25336 6.7949280000000005 5.151312 7.26C5.0562000000000005 7.693512 5.030712 8.257824000000001 5.087856 8.664744C5.185848 9.362472 5.4096 9.894672 5.91 10.620000000000001C7.258368000000001 12.574488 8.922816 14.439336 10.741536 16.033224C11.81952 16.977936 13.400256000000002 18.163032 14.016 18.488112C14.798160000000001 18.901032 15.669696 19.044816 16.524 18.901848C16.6296 18.884184 16.718928 18.872256 16.722504 18.875376000000003C16.742736 18.89292 16.803024 19.3206 16.815839999999998 19.537464C16.876176 20.55852 16.310064 21.415128000000003 15.241895999999999 21.918984000000002C13.98636 22.511208 11.919144 22.676472 10.08 22.331664C9.137304 22.154927999999998 8.1522 21.824736 7.310112000000001 21.403272C4.647624 20.070648000000002 2.672304 17.669544000000002 1.88436 14.808C1.504536 13.428624 1.4091120000000001 11.935944000000001 1.610472 10.524000000000001C1.8918959999999998 8.5506 2.752224 6.659616 4.050912 5.16C4.338456 4.827984 4.969272 4.20516 5.269488 3.9568800000000004C6.495840000000001 2.942736 7.878792000000001 2.2360320000000002 9.396 1.848216C11.807208 1.231872 14.305895999999999 1.481808 16.572096000000002 2.566056C18.378072000000003 3.430128 19.969368 4.886424 21.006168 6.6240000000000006C21.764112 7.894248000000001 22.249104000000003 9.324888 22.429944000000003 10.824C22.48236 11.25864 22.501992 12.352104 22.465560000000004 12.80892C22.313112 14.720784 21.675743999999998 16.49052 20.571047999999998 18.06936C20.274863999999997 18.492672000000002 20.246088 18.561336 20.260920000000002 18.809592C20.273952 19.027872 20.329944 19.15536 20.474376000000003 19.29552C20.727408 19.541088 21.125880000000002 19.581816 21.413208 19.391496C21.714264 19.192104 22.590528000000003 17.774376 22.992696 16.836000000000002C23.555136 15.523752 23.835552 14.394863999999998 23.979408000000003 12.864C24.01044 12.533688 24.029496 11.344007999999999 24.002664 11.411016C23.99112 11.439888 23.977680000000003 11.342592 23.96784 11.159016000000001C23.933184 10.511208 23.780664 9.597288 23.589503999999998 8.892C22.7754 5.8882319999999995 20.86248 3.350952 18.192 1.732776C17.470008 1.29528 16.543104000000003 0.8715120000000001 15.72 0.6025440000000001C14.348040000000001 0.154272 12.745704000000002 -0.056184000000000005 11.328 0.025752M7.836 5.86596C7.737144 5.91 7.112184 6.552912 6.985224 6.741143999999999C6.463632 7.514520000000001 6.41844 8.532984 6.8700719999999995 9.336C7.13112 9.800112 8.165952 11.174952 8.902368000000001 12.036C9.784104 13.066920000000001 10.92576 14.208696 11.964 15.097895999999999C12.897408000000002 15.897336000000001 14.332872 16.968384 14.759544 17.183784C15.579096000000002 17.597472 16.596504 17.516184 17.328 16.97856C17.516832 16.839768000000003 18.087264 16.28556 18.13428 16.1952C18.178128 16.110912 18.17712 15.998448 18.131616 15.902568C18.083280000000002 15.800712000000003 16.159104000000003 13.882272 16.07244 13.849535999999999C15.919800000000002 13.791863999999999 15.819432 13.831464 15.576384 14.045256000000002C15.432576000000001 14.171784 15.204408 14.296824 14.980008000000002 14.372088C14.813880000000001 14.427816 14.759856000000001 14.433792 14.424 14.433792C14.086872 14.433792 14.034504 14.427936 13.865328 14.371248000000001C13.459824000000001 14.235336 13.47648 14.249903999999999 11.66808 12.446928C10.752912 11.53452 9.95772 10.7232 9.900936 10.644C9.548664 10.15248 9.46524 9.55212 9.667656000000001 8.964888C9.736872 8.76408 9.873456000000001 8.54088 10.06896 8.309112C10.16328 8.197296 10.176 8.168472 10.176 8.066712C10.176 7.97688 10.160568000000001 7.930392 10.106568000000001 7.8576C9.993576000000001 7.705296 8.178912 5.912568 8.0952 5.870544C8.002944000000001 5.824248 7.932408 5.823 7.836 5.86596M0.01044 12C0.01044 12.336599999999999 0.0138 12.474312000000001 0.017928 12.306000000000001C0.022056000000000003 12.137712 0.022056000000000003 11.862288 0.017928 11.694C0.0138 11.525712 0.01044 11.663400000000001 0.01044 12" stroke="none" fill="currentColor" fill-rule="evenodd"></path></svg>