<svg xmlns="http://www.w3.org/2000/svg" viewBox="0 0 24 24" id="Read-Email-At--Streamline-Streamline--3.0.svg"><path d="M11.196 0.024432000000000002C8.759016 0.21974400000000002 6.643896000000001 1.011552 4.755936 2.4353279999999997C2.2634640000000004 4.314984 0.590976 7.136280000000001 0.131592 10.236C0.049152 10.792368 0.023568 11.101512 0.007344 11.737248000000001C-0.087624 15.463488 1.5809039999999999 19.029287999999998 4.5186 21.378168C6.356592 22.847784 8.526696 23.720015999999998 10.932 23.955936C11.345736 23.99652 12.689544 23.996976 13.08 23.956656C14.689752 23.790456 16.052064 23.397528 17.421072000000002 22.7046C18.255816 22.282104 19.211496 21.652272 19.373016 21.418224000000002C19.626360000000002 21.05112 19.485888000000003 20.535816 19.07508 20.32524C18.951816 20.262072 18.682368 20.238144 18.537 20.277456C18.481920000000002 20.29236 18.285048 20.411328 18.093 20.545776C16.845552 21.419136 15.50904 21.996959999999998 14.052 22.29288C12.951528000000001 22.516368 11.696112000000001 22.551023999999998 10.536 22.389912000000002C8.821007999999999 22.151784 7.156584 21.471456 5.76 20.437752C4.685232 19.642272000000002 3.72288 18.58644 3.029976 17.442528000000003C1.643304 15.153312000000001 1.182816 12.422592 1.741536 9.801864C2.244192 7.4440800000000005 3.561816 5.312304 5.448 3.805224C6.9936 2.570256 8.823336000000001 1.8096720000000002 10.824 1.570536C11.270448 1.51716 12.323231999999999 1.497888 12.778296 1.534728C15.866520000000001 1.7848080000000002 18.594144 3.2874 20.42484 5.747088C21.406776 7.066368000000001 22.068264 8.612352000000001 22.34196 10.227552000000001C22.471392 10.991520000000001 22.476 11.084424 22.476 12.936L22.476 14.652000000000001 22.409832 14.862912000000001C22.28928 15.247224000000001 22.126416 15.527784 21.865464000000003 15.800688C21.591048 16.087656 21.266424 16.28448 20.862912 16.408512C20.670863999999998 16.467552 20.616576000000002 16.473456 20.256 16.474368000000002C19.914384 16.475256 19.833624 16.467888000000002 19.668 16.4208C19.041384 16.242672000000002 18.521208 15.809520000000001 18.240024 15.23172C18.01416 14.767632 18.0186 14.809152000000001 17.999472 12.984C17.982120000000002 11.328 17.97552 11.215488 17.866775999999998 10.72548C17.676432000000002 9.867792000000001 17.313384 9.082392 16.77312 8.359440000000001C16.54692 8.056799999999999 15.9432 7.453080000000001 15.640560000000002 7.22688C14.555904 6.416304 13.321608000000001 6.000503999999999 12 6.000503999999999C10.678392 6.000503999999999 9.444096 6.416304 8.359440000000001 7.22688C8.056799999999999 7.453080000000001 7.453080000000001 8.056799999999999 7.22688 8.359440000000001C6.416304 9.444096 6.000503999999999 10.678392 6.000503999999999 12C6.000503999999999 13.321608000000001 6.416304 14.555904 7.22688 15.640560000000002C7.453080000000001 15.9432 8.056799999999999 16.54692 8.359440000000001 16.77312C9.442872 17.582784 10.679856000000001 17.999496 12 17.999496C13.322591999999998 17.999496 14.556696 17.582808 15.647208 16.768079999999998C15.897216 16.581312 16.549968 15.944784 16.680456 15.760560000000002L16.762224 15.645096 16.8492 15.83256C17.281464 16.764024 18.096816 17.486112 19.081344 17.809416C19.904712000000004 18.079776 20.812224 18.056928 21.603408 17.745888C21.907224000000003 17.62644 22.028232 17.563848 22.296 17.387616C22.587744 17.195616 22.862736 16.957392 23.072112 16.715328C23.248296 16.511592 23.49876 16.145904 23.597640000000002 15.948C23.783592 15.575832000000002 23.926536 15.091560000000001 23.973072000000002 14.676C24.007632 14.367624 24.03276 11.424 24.00084 11.424C23.986488 11.424 23.976 11.363328 23.976 11.280216000000001C23.976 11.052048000000001 23.906952 10.440888 23.829528000000003 9.984C23.315256 6.94836 21.645672 4.2242880000000005 19.164 2.371776C17.43948 1.084464 15.40212 0.295728 13.188 0.058248C12.787680000000002 0.015312000000000001 11.568216000000001 -0.0054 11.196 0.024432000000000002M11.376 7.54716C10.617096 7.658352000000001 9.911159999999999 7.9512480000000005 9.3 8.408496C9.0534 8.593008 8.593008 9.0534 8.408496 9.3C7.812288000000001 10.096919999999999 7.512887999999999 10.999512 7.512887999999999 12C7.512887999999999 13.000488 7.812288000000001 13.90308 8.408496 14.700000000000001C8.593008 14.9466 9.0534 15.406991999999999 9.3 15.591503999999999C10.095648 16.186776 11.001096 16.487112 12 16.487112C12.998904 16.487112 13.904352 16.186776 14.700000000000001 15.591503999999999C14.9466 15.406991999999999 15.406991999999999 14.9466 15.591503999999999 14.700000000000001C16.186776 13.904352 16.487112 12.998904 16.487112 12C16.487112 11.001096 16.186776 10.095648 15.591503999999999 9.3C15.406991999999999 9.0534 14.9466 8.593008 14.700000000000001 8.408496C14.081664 7.945872 13.382136000000001 7.65732 12.612 7.5472079999999995C12.321048 7.505592 11.659752 7.505568000000001 11.376 7.54716M0.010344 12.012C0.010368 12.328800000000001 0.013776 12.455088 0.017928 12.292632C0.022104000000000002 12.130176 0.022080000000000002 11.870976 0.017904 11.716632C0.013727999999999999 11.562288 0.010344 11.6952 0.010344 12.012" stroke="none" fill="currentColor" fill-rule="evenodd"></path></svg>